<?xml version="1.0" encoding="UTF-8"?> <svg xmlns="http://www.w3.org/2000/svg" id="Layer_1" data-name="Layer 1" viewBox="0 0 445.952 70"><defs><style> .cls-1 { fill: #a03123; } .cls-2 { fill: #985f35; } .cls-3 { fill: #512c1d; } </style></defs><path class="cls-1" d="M233.016,5.454h3.651v59.1h-3.651Zm23.39,0h3.651v59.1h-3.651ZM265.476,70V5.454h4.955V.011h-19.49V64.558h-8.855V0H222.812V5.442h4.773V70Z"></path><path class="cls-2" d="M2.562,44.252V25.238H.59v-3.56H0v4.15H2.007V44.841c0,5.669,2.437,10.488,12,10.488,3.22,0,6.8-.714,9.071-3.231-2.268,2.04-5.533,2.641-8.492,2.641C5,54.717,2.562,49.909,2.562,44.252Zm0,0V25.238H.59v-3.56H0v4.15H2.007V44.841c0,5.669,2.437,10.488,12,10.488,3.22,0,6.8-.714,9.071-3.231-2.268,2.04-5.533,2.641-8.492,2.641C5,54.717,2.562,49.909,2.562,44.252Zm44.66,6.394h-.589v4.139h8.322v-.579H47.222Zm0,0h-.589v4.139h8.322v-.579H47.222Zm49.467,0H96.1v4.139h8.923v-.579H96.689Zm0,0H96.1v4.139h8.923v-.579H96.689Zm76.009,0h-.589V54.8h8.821v-.59H172.7Zm0,0h-.589V54.8h8.821v-.59H172.7ZM21,44.014V25.238H18.73v-3.56h-.589v4.15h2.267V44.6a7.322,7.322,0,0,1-1.315,4.785C20.454,48.3,21,46.531,21,44.014Zm0,0V25.238H18.73v-3.56h-.589v4.15h2.267V44.6a7.322,7.322,0,0,1-1.315,4.785C20.454,48.3,21,46.531,21,44.014Zm28.31-18.776H47.222v-3.56h-.589v4.15h2.086V50.057h.589Zm0,0H47.222v-3.56h-.589v4.15h2.086V50.057h.589Zm21.021,21.6v-21.6H67.834v-3.56h-.589v4.15h2.494V45.964l.488.873Zm0,0v-21.6H67.834v-3.56h-.589v4.15h2.494V45.964l.488.873ZM53.5,26.259h-.09v1.473l15.2,27.4h5.215v-.59H69.206Zm0,0h-.09v1.473l15.2,27.4h5.215v-.59H69.206Zm45.159-1.021H96.689v-3.56H96.1v4.15h1.973V50.057h.589Zm0,0H96.689v-3.56H96.1v4.15h1.973V50.057h.589ZM122,37.71a17.134,17.134,0,0,1,4.536-12A17.009,17.009,0,0,0,121.417,38.3c0,10,7.12,17.064,17.12,17.064a17,17,0,0,0,12.585-5.182,17.165,17.165,0,0,1-12.006,4.536C129.116,54.717,122,47.664,122,37.71Zm0,0a17.134,17.134,0,0,1,4.536-12A17.009,17.009,0,0,0,121.417,38.3c0,10,7.12,17.064,17.12,17.064a17,17,0,0,0,12.585-5.182,17.165,17.165,0,0,1-12.006,4.536C129.116,54.717,122,47.664,122,37.71ZM196.3,46.837v-21.6H193.81v-3.56h-.59v4.15h2.494V45.964l.488.873Zm0,0v-21.6H193.81v-3.56h-.59v4.15h2.494V45.964l.488.873Zm-21.021-21.6H172.7v-3.56h-.589v4.15h2.6V50.057h.578Zm0,0H172.7v-3.56h-.589v4.15h2.6V50.057h.578Zm4.2,1.021h-.09v1.473l15.2,27.4h5.215v-.59h-4.626Zm0,0h-.09v1.473l15.2,27.4h5.215v-.59h-4.626ZM150.249,37.8a12.8,12.8,0,0,1-3.288,8.765,12.664,12.664,0,0,0,3.855-9.331c0-6.8-4.875-12.2-11.213-12.2a10.724,10.724,0,0,0-7.936,3.481,10.686,10.686,0,0,1,7.369-2.925C145.317,25.6,150.249,30.907,150.249,37.8ZM306.417,25.306h-5.669v.465h5.261c3.662,0,5.862,2.154,5.862,6.054a6.273,6.273,0,0,1-1.27,4.229,5.841,5.841,0,0,0,1.735-4.693C312.279,27.506,310.113,25.306,306.417,25.306ZM293.073,50.635h-.465v4.15h10.465v-.454h-10Zm2.641-25.34h-2.641V21.61h-.465v4.15h2.641V50.17h.465ZM300.7,41.621v.465h3.254c4.739,0,7.868-.533,10.2-2.834l.261-.272c-2.268,2.131-5.352,2.641-9.955,2.641Zm49.932,9.014h-.454v4.15h9.966v-.454h-9.512Zm-5.51-25.771h-.442l-.159.453h.136l4.252,13.47h.6Zm-4.8,0h-1.894V21.61h-.453v3.707h1.893L330.952,50.17h.3Zm10.465,17.778H338.866l-.159.465h11.622l2.29,7.063h.612Zm-22.041,7.993h-.465v4.15h10.068v-.454h-9.6Zm66.678-20.374a4.834,4.834,0,0,1-1.009,3.163A4.535,4.535,0,0,0,395.9,29.8c0-2.937-2.053-4.535-5.227-4.535H384.6v.465h5.6C393.379,25.76,395.431,27.324,395.431,30.261Zm-6.089,8.526H384.6v.465h4.286l7.517,15.533h5.669v-.454h-5.2ZM376.587,50.635h-.453v4.15h10.793v-.454h-10.34Zm3.039-25.34h-3.039V21.61h-.453v4.15h3.027V50.17h.465Zm47.052.011H429v.465h-2.324Zm-7.619,25.329h-.465v4.15h9.921v-.454h-9.456Zm7.619-13.628v.521l9.649,12.642h.816L426.927,36.78m10.6-11.485h-2.3V21.61h-.454v4.15h2.29M434.58,50.635h-.464v4.15h10.963v-.454h-10.5ZM421.7,25.3h-2.642V21.61h-.465v4.15h2.642V50.17h.465Zm21.088.465h1.95V25.3H443.2ZM426.463,37.245l.215.283v-.521Z"></path><path class="cls-3" d="M19.138,24.932V20.794h9.207v4.149H26.327V44c0,8.538-6.191,10.431-11.463,10.431-9.547,0-12.007-4.83-12.007-10.487V24.932H.873V20.794h9.206v4.149H7.812V44.1c0,4.728,2.88,6.338,6.632,6.338,4.921,0,6.871-2.1,6.871-6.723V24.932Zm30.488,0H47.54V20.794h8.673L70.544,46.531h.1v-21.6H68.152V20.794h8.821v4.138H74.739V54.24H69.524l-15.7-28.276h-.1V49.751h2.143V53.9H47.54V49.751h2.086Zm49.354,0H97.007V20.794h8.923v4.138h-1.973V49.751h1.973V53.9H97.007V49.751H98.98Zm40.453,25.113c6.587,0,11.655-5.555,11.655-12.675s-5.068-12.721-11.655-12.721S127.778,30.2,127.778,37.37s5.068,12.675,11.655,12.675m0-29.8c9.943,0,17.12,7.166,17.12,17.121s-7.165,17.063-17.12,17.063-17.12-7.075-17.12-17.063,7.165-17.121,17.12-17.121m54.694.545v4.138h2.494v21.6h-.1L182.188,20.794h-9.183v4.138h2.6V49.751h-2.6V53.9h8.832V49.751h-2.143V25.964h.1L195.5,54.24h5.215V24.932h2.234V20.794Zm101.939,4.149h-2.642V20.794h13.2c9.184,0,11.089,6.054,11.089,10.26a10.508,10.508,0,0,1-2.789,7.381c-2.268,2.268-5.42,2.835-10.2,2.835h-3.674v8.549h2.835v4.149H293.413V49.819h2.641ZM305.2,37.256c6.111,0,7.426-2.834,7.426-6.258,0-3.912-2.2-6.055-5.861-6.055H301.1V37.256Zm34.014,4.989-2.585,7.528h2.539v4.15H329.1v-4.1h2.5l9.07-25.307H338.8V20.794H351.27v3.718H349.8l8.945,25.307h2.2v4.149h-9.977V49.819h2.6l-2.415-7.574Zm6.258-17.789h-.442l-4.592,13.923h9.433Zm34.5.487H376.95V20.794h13.832c7.472,0,10.556,3.616,10.556,8.65,0,4.252-2.392,7.189-6.8,8.311L400.4,49.83h2.539v4.15h-5.668l-7.563-15.545h-4.762V49.773h2.789v4.15H376.927v-4.1h3.028Zm10.635,9.365c4.694,0,5.669-2.641,5.669-4.841,0-2.936-2.052-4.535-5.227-4.535h-6.111v9.376Zm31.44-9.365H419.41V20.794h10.409v4.149h-2.79V49.819H429.3v4.149H419.41V49.819h2.642Zm15.873,0h-2.267V20.794h9.977v4.149h-2.007l-10.2,11.486L443.9,49.819h2.052v4.149H434.989V49.819h2.562l-10.2-13.39Z"></path></svg> 